<?xml version="1.0" encoding="UTF-8" standalone="no"?>
<!-- Uploaded to: SVG Repo, www.svgrepo.com, Generator: SVG Repo Mixer Tools -->

<svg
   width="800"
   height="200"
   viewBox="0 -192 512 128"
   version="1.1"
   preserveAspectRatio="xMidYMid"
   id="svg1"
   sodipodi:docname="linkedin_logo.svg"
   inkscape:version="1.3.2 (091e20e, 2023-11-25, custom)"
   xmlns:inkscape="http://www.inkscape.org/namespaces/inkscape"
   xmlns:sodipodi="http://sodipodi.sourceforge.net/DTD/sodipodi-0.dtd"
   xmlns="http://www.w3.org/2000/svg"
   xmlns:svg="http://www.w3.org/2000/svg">
  <defs
     id="defs1" />
  <sodipodi:namedview
     id="namedview1"
     pagecolor="#ffffff"
     bordercolor="#000000"
     borderopacity="0.25"
     inkscape:showpageshadow="2"
     inkscape:pageopacity="0.0"
     inkscape:pagecheckerboard="0"
     inkscape:deskcolor="#d1d1d1"
     inkscape:clip-to-page="false"
     inkscape:zoom="1.02625"
     inkscape:cx="397.07674"
     inkscape:cy="395.12789"
     inkscape:window-width="1920"
     inkscape:window-height="1017"
     inkscape:window-x="-8"
     inkscape:window-y="-8"
     inkscape:window-maximized="1"
     inkscape:current-layer="svg1" />
  <g
     id="g1"
     transform="translate(0,-192)">
    <path
       d="m 202.05714,74.971429 28.25143,34.742861 H 208 L 182.85714,77.805714 V 109.71429 H 164.57143 V 18.285714 h 18.28571 v 53.76 L 206.08,45.714286 h 23.31429 z M 128.91429,43.885714 c -8.1271,0.121581 -15.67774,4.221475 -20.20572,10.971429 V 45.714286 H 91.428571 V 109.71429 H 109.71429 V 79.817143 c -0.48543,-4.386539 0.87316,-8.777609 3.75102,-12.123549 2.87785,-3.34594 7.01632,-5.346032 11.42612,-5.522165 10.60571,0 12.25143,10.422857 12.25143,17.645714 v 29.897147 h 18.28571 V 75.794286 C 155.42857,55.68 148.75429,43.885714 129.28,43.885714 Z m 163.65714,35.291429 c 0.07,1.34004 0.07,2.682817 0,4.022857 h -48 v 0.64 c 1.60938,7.875731 8.70024,13.416671 16.73143,13.074286 6.23195,0.270919 12.30568,-2.00673 16.82285,-6.308572 l 12.16,9.142857 c -7.79349,7.953119 -18.588,12.237709 -29.71428,11.794289 -9.21943,0.58292 -18.23902,-2.85832 -24.72717,-9.43415 -6.48815,-6.575829 -9.80802,-15.640793 -9.1014,-24.851567 -0.18926,-9.084294 3.40618,-17.838477 9.9258,-24.167362 6.51962,-6.328885 15.37667,-9.662889 24.45134,-9.204067 17.18857,0 31.45143,12.16 31.45143,35.291429 z m -17.00572,-7.862857 c -0.13574,-3.659972 -1.76932,-7.103404 -4.51812,-9.523726 -2.74879,-2.420321 -6.3713,-3.604903 -10.01902,-3.276274 -8.03982,-0.869213 -15.32058,4.793595 -16.45714,12.8 z M 18.285714,18.285714 H 0 V 109.71429 H 54.857143 V 91.428571 H 18.285714 Z m 329.142856,0 h 18.28572 v 91.428576 h -17.28 v -6.4 c -4.44965,5.48198 -11.23177,8.53393 -18.28572,8.22857 -8.58937,-0.2206 -16.70694,-3.97622 -22.43568,-10.37995 -5.72873,-6.403717 -8.56072,-14.887786 -7.82718,-23.448624 -0.87303,-8.57646 1.89775,-17.125094 7.63587,-23.558744 5.73812,-6.433649 13.91548,-10.160206 22.53556,-10.269828 6.41417,-0.280847 12.67261,2.024894 17.37143,6.4 z M 348.8,77.714286 c 0.58189,-4.271671 -0.71456,-8.586023 -3.5547,-11.829387 -2.84013,-3.243363 -6.94563,-5.097901 -11.25673,-5.084967 -8.74678,0.635155 -15.37434,8.157228 -14.90286,16.914354 -0.47148,8.757125 6.15608,16.279199 14.90286,16.914353 4.3111,0.01293 8.4166,-1.841604 11.25673,-5.084967 2.84014,-3.243363 4.13659,-7.557715 3.5547,-11.829386 z M 73.142857,16.457143 c -6.100257,0.08684 -11.092921,4.879794 -11.428571,10.971428 0,6.311826 5.116745,11.428572 11.428571,11.428572 6.311826,0 11.428572,-5.116746 11.428572,-11.428572 C 84.235778,21.336937 79.243114,16.543979 73.142857,16.457143 Z M 64,109.71429 H 82.285714 V 45.714286 H 64 Z M 512,9.1428571 V 118.85714 C 512,123.9066 507.9066,128 502.85714,128 H 393.14286 C 388.0934,128 384,123.9066 384,118.85714 V 9.1428571 C 384,4.0933966 388.0934,0 393.14286,0 H 502.85714 C 507.9066,0 512,4.0933966 512,9.1428571 Z M 420.57143,45.714286 h -18.28572 v 64.000004 h 18.28572 z m 2.28571,-18.285715 C 422.85714,21.116746 417.7404,16 411.42857,16 405.11675,16 400,21.116746 400,27.428571 c 0,6.311826 5.11675,11.428572 11.42857,11.428572 6.31183,0 11.42857,-5.116746 11.42857,-11.428572 z m 70.85715,48.365715 c 0,-20.114286 -6.67429,-31.908572 -26.14858,-31.908572 -8.25688,10e-4 -15.97072,4.115063 -20.57142,10.971429 v -9.142857 h -17.28 V 109.71429 H 448 V 79.817143 c -0.48543,-4.386539 0.87316,-8.777609 3.75102,-12.123549 2.87785,-3.34594 7.01632,-5.346032 11.42612,-5.522165 10.60572,0 12.25143,10.422857 12.25143,17.645714 v 29.897147 h 18.28572 z"
       fill="#123b62"
       id="path1" />
  </g>
</svg>
