<?xml version="1.0" encoding="UTF-8" standalone="no"?>
<svg
   version="1.0"
   width="1280.000000pt"
   height="1280.000000pt"
   viewBox="0 0 1280.000000 1280.000000"
   preserveAspectRatio="xMidYMid meet"
   id="svg2"
   sodipodi:docname="smartphone.svg"
   inkscape:version="1.3.2 (091e20e, 2023-11-25, custom)"
   xmlns:inkscape="http://www.inkscape.org/namespaces/inkscape"
   xmlns:sodipodi="http://sodipodi.sourceforge.net/DTD/sodipodi-0.dtd"
   xmlns="http://www.w3.org/2000/svg"
   xmlns:svg="http://www.w3.org/2000/svg">
  <defs
     id="defs2" />
  <sodipodi:namedview
     id="namedview2"
     pagecolor="#ffffff"
     bordercolor="#000000"
     borderopacity="0.25"
     inkscape:showpageshadow="2"
     inkscape:pageopacity="0.0"
     inkscape:pagecheckerboard="0"
     inkscape:deskcolor="#d1d1d1"
     inkscape:document-units="pt"
     inkscape:zoom="0.48105469"
     inkscape:cx="852.29395"
     inkscape:cy="853.33333"
     inkscape:window-width="1920"
     inkscape:window-height="1017"
     inkscape:window-x="-8"
     inkscape:window-y="-8"
     inkscape:window-maximized="1"
     inkscape:current-layer="svg2" />
  <metadata
     id="metadata1">
Created by potrace 1.16, written by Peter Selinger 2001-2019
</metadata>
  <g
     transform="translate(0.000000,1280.000000) scale(0.100000,-0.100000)"
     fill="#123B62"
     stroke="none"
     id="g2"
     style="fill:#2279b8;fill-opacity:1">
    <path
       d="M6275 12749 c-242 -27 -1155 -125 -2030 -219 -875 -94 -1880 -202 -2235 -240 -355 -38 -672 -77 -705 -85 -113 -29 -201 -79 -279 -158 -113 -114 -156 -225 -156 -403 0 -123 23 -221 84 -354 36 -79 1390 -2851 4115 -8419 297 -608 514 -1038 548 -1090 165 -249 483 -478 786 -565 208 -60 294 -60 882 4 253 27 1133 122 1955 210 822 88 1830 197 2240 241 410 44 772 87 805 95 394 100 544 500 346 919 -68 143 -4541 9287 -4589 9379 -123 239 -340 450 -601 585 -141 72 -230 104 -360 131 -152 31 -296 25 -806 -31z m2857 -4901 c1521 -3109 1823 -3734 1810 -3740 -10 -3 -1182 -130 -2607 -282 -1424 -152 -2597 -278 -2606 -280 -11 -2 -465 917 -1842 3732 -1005 2054 -1826 3737 -1823 3739 2 3 670 76 1483 163 813 88 1795 193 2183 235 388 42 883 95 1100 119 217 24 413 44 435 45 l41 1 1826 -3732z m98 -4942 c179 -72 312 -200 366 -355 27 -77 30 -119 10 -185 -20 -65 -54 -106 -117 -141 -70 -38 -194 -47 -285 -20 -297 86 -511 380 -424 583 25 57 74 106 129 130 85 35 217 30 321 -12z"
       id="path1"
       style="fill:#2279b8;fill-opacity:1" />
    <path
       d="M318 11055 c-233 -322 -284 -539 -192 -813 24 -72 3859 -8157 4130 -8707 158 -323 236 -463 359 -650 345 -528 726 -800 1215 -870 135 -19 459 -19 650 0 547 54 5095 537 5134 545 129 27 266 128 386 282 85 110 226 326 217 334 -3 3 -203 -15 -444 -40 -241 -25 -760 -80 -1153 -121 -4306 -453 -4249 -447 -4385 -442 -473 17 -827 302 -1188 953 -65 118 -4023 8196 -4377 8934 -162 337 -219 485 -257 675 l-9 40 -86 -120z"
       id="path2"
       style="fill:#2279b8;fill-opacity:1" />
  </g>
</svg>
