<?xml version="1.0" encoding="UTF-8" standalone="no"?>
<!-- Uploaded to: SVG Repo, www.svgrepo.com, Generator: SVG Repo Mixer Tools -->

<svg
   height="12px"
   width="12px"
   version="1.1"
   id="_x32_"
   viewBox="0 0 512 512"
   xml:space="preserve"
   sodipodi:docname="telephone.svg"
   inkscape:version="1.3.2 (091e20e, 2023-11-25, custom)"
   xmlns:inkscape="http://www.inkscape.org/namespaces/inkscape"
   xmlns:sodipodi="http://sodipodi.sourceforge.net/DTD/sodipodi-0.dtd"
   xmlns:xlink="http://www.w3.org/1999/xlink"
   xmlns="http://www.w3.org/2000/svg"
   xmlns:svg="http://www.w3.org/2000/svg"><defs
   id="defs4"><linearGradient
     id="linearGradient4"
     inkscape:collect="always"><stop
       style="stop-color:#2279b8;stop-opacity:1;"
       offset="0"
       id="stop4" /><stop
       style="stop-color:#000000;stop-opacity:0;"
       offset="1"
       id="stop5" /></linearGradient><linearGradient
     inkscape:collect="always"
     xlink:href="#linearGradient4"
     id="linearGradient5"
     x1="102.98217"
     y1="256.00018"
     x2="409.018"
     y2="256.00018"
     gradientUnits="userSpaceOnUse" /></defs><sodipodi:namedview
   id="namedview4"
   pagecolor="#ffffff"
   bordercolor="#000000"
   borderopacity="0.25"
   inkscape:showpageshadow="2"
   inkscape:pageopacity="0.0"
   inkscape:pagecheckerboard="0"
   inkscape:deskcolor="#d1d1d1"
   inkscape:zoom="1.02625"
   inkscape:cx="400.48721"
   inkscape:cy="400"
   inkscape:window-width="1920"
   inkscape:window-height="1017"
   inkscape:window-x="-8"
   inkscape:window-y="-8"
   inkscape:window-maximized="1"
   inkscape:current-layer="_x32_" />
<style
   type="text/css"
   id="style1">
	.st0{fill:#123B62;}
</style>
<g
   id="g4"
   style="fill:#2279b8;fill-opacity:1">
	<path
   class="st0"
   d="M130.344,129.778c-27.425,17.786-32.812,73.384-22.459,118.698c8.064,35.288,25.208,82.623,54.117,127.198   c27.196,41.933,65.138,79.532,94.069,101.286c37.151,27.934,90.112,45.688,117.537,27.902c13.868-8.994,34.47-33.567,35.41-37.976   c0,0-12.082-18.629-14.733-22.716l-40.516-62.47c-3.011-4.642-21.892-0.399-31.484,5.034   c-12.938,7.331-24.854,27.001-24.854,27.001c-8.872,5.125-16.302,0.019-31.828-7.126c-19.081-8.779-40.535-36.058-57.609-60.765   c-15.595-25.666-31.753-56.38-31.988-77.382c-0.192-17.09-1.824-25.957,6.473-31.967c0,0,22.82-2.858,34.79-11.681   c8.872-6.542,20.447-22.051,17.436-26.693l-40.515-62.47c-2.651-4.088-14.733-22.716-14.733-22.716   C175.05,111.994,144.211,120.784,130.344,129.778z"
   id="path1"
   style="fill:#2279b8;fill-opacity:1" />
	<path
   class="st0"
   d="M360.036,176.391c16.488-67.201-22.687-135.921-88.913-155.97L276.715,0   c77.488,23.14,123.308,103.517,103.742,181.983L360.036,176.391z"
   id="path2"
   style="fill:#2279b8;fill-opacity:1" />
	<path
   class="st0"
   d="M315.781,164.273c9.845-42.802-14.93-86.262-56.776-99.596l5.594-20.428   c53.106,16.435,84.524,71.548,71.61,125.618L315.781,164.273z"
   id="path3"
   style="fill:#2279b8;fill-opacity:1" />
	<path
   class="st0"
   d="M271.466,152.138c3.288-18.373-7.111-36.616-24.596-43.147l5.605-20.468   c28.724,9.694,45.751,39.564,39.459,69.22L271.466,152.138z"
   id="path4"
   style="fill:#2279b8;fill-opacity:1" />
</g>
</svg>
